# xmcd CD database file
#
# Track frame offsets:
#	197
#	17937
#	40257
#
# Disc length: 884 seconds
#
# Revision: 0
# Processed by: cddbd v1.5PL3 Copyright (c) Steve Scherf et al.
# Submitted via: CDex 1.50
#
DISCID=1e037203
DTITLE=The Brand New Heavies - Dream Come True
DYEAR=1990
DGENRE=Acid Jazz
TTITLE0=Dream Come True(Brand New Mix)
TTITLE1=Dream Come True(Original Mix)
TTITLE2=Dream Come True(Excursion)
EXTD=YEAR: 1990
EXTT0=
EXTT1=
EXTT2=
PLAYORDER=
